<?xml version="1.0" encoding="UTF-8" standalone="no"?>
<!-- Created with Inkscape (http://www.inkscape.org/) -->

<svg
   xmlns:dc="http://purl.org/dc/elements/1.1/"
   xmlns:cc="http://creativecommons.org/ns#"
   xmlns:rdf="http://www.w3.org/1999/02/22-rdf-syntax-ns#"
   xmlns:svg="http://www.w3.org/2000/svg"
   xmlns="http://www.w3.org/2000/svg"
   xmlns:sodipodi="http://sodipodi.sourceforge.net/DTD/sodipodi-0.dtd"
   xmlns:inkscape="http://www.inkscape.org/namespaces/inkscape"
   version="1.1"
   width="408"
   height="110"
   viewBox="0 0 68 18.3335"
   id="Layer_1"
   inkscape:version="0.91 r13725"
   sodipodi:docname="karaf-logo.svg"
   inkscape:export-filename="/Users/gnodet/work/svn/karaf-site/src/main/webapp/images/karaf-logo.png"
   inkscape:export-xdpi="24.650673"
   inkscape:export-ydpi="24.650673">
  <sodipodi:namedview
     pagecolor="#ffffff"
     bordercolor="#666666"
     borderopacity="1"
     objecttolerance="10"
     gridtolerance="10"
     guidetolerance="10"
     inkscape:pageopacity="0"
     inkscape:pageshadow="2"
     inkscape:window-width="1303"
     inkscape:window-height="696"
     id="namedview1661"
     showgrid="false"
     inkscape:zoom="1"
     inkscape:cx="292.58561"
     inkscape:cy="69.503722"
     inkscape:window-x="20"
     inkscape:window-y="43"
     inkscape:window-maximized="0"
     inkscape:current-layer="Layer_1" />
  <metadata
     id="metadata6361">
    <rdf:RDF>
      <cc:Work
         rdf:about="">
        <dc:format>image/svg+xml</dc:format>
        <dc:type
           rdf:resource="http://purl.org/dc/dcmitype/StillImage" />
        <dc:title></dc:title>
      </cc:Work>
    </rdf:RDF>
  </metadata>
  <g
     id="g6706"
     transform="matrix(0.28204394,0,0,0.28204394,-0.4256827,3.0647308)">
    <text
       x="23.475529"
       y="6.8579221"
       id="text6357"
       style="font-size:22.4673996px;font-family:GauFontPopMagic;fill:#ffffff;fill-opacity:1">Karaf</text>
    <g
       transform="translate(0,-18.333499)"
       style="fill:#ffffff;fill-opacity:1"
       id="karaf">
      <path
         style="fill:#ffffff;fill-opacity:1"
         d="m 9.679,8.529 c -3.475,0.14 4.284,3.561 4.542,1.678 0.82,0.86 0.08,0.95 0.08,0.95 -3.337,0.458 -7.841,-2.396 -5.67,-2.928 0.534,-0.107 1.048,0.3 1.048,0.3 z"
         id="path6345"
         inkscape:connector-curvature="0" />
      <path
         style="fill:#ffffff;fill-opacity:1"
         d="m 14.365,11.757 c -1.219,3.166 0.213,7.073 2.703,9.608 1.244,1.158 7.42,4.29 2.059,6.777 C 15.695,30.244 7.631,29.6 4.757,28.356 1.798,26.512 1.84,25.482 4.028,23.552 6.293,21.323 8.554,21.035 9.497,15.76 9.712,12.843 8.939,11.741 8.917,10.599 8.96,10.042 12.3,18.641 5.229,23.295 c -0.887,0.583 -2.917,2.746 0.042,4.246 3.938,1.486 6.563,2.617 13.168,0.086 3.56,-1.63 -0.729,-5.232 -1.587,-5.834 -0.469,-0.386 -4.6,-5.088 -2.702,-9.993 0.129,0 0.215,-0.043 0.215,-0.043 z"
         id="path6347"
         inkscape:connector-curvature="0" />
      <path
         style="fill:#ffffff;fill-opacity:1"
         d="m 10.333,8.583 c 0,0 2.466,0.708 3.11,1.33 0,0.043 -0.558,-1.309 -3.11,-1.33 z"
         id="path6349"
         inkscape:connector-curvature="0" />
      <path
         style="fill:#ffffff;fill-opacity:1"
         d="m 9.475,10.667 0.258,0 c 0,0 1.416,4.084 0.493,6.614 -0.022,0 0.579,-2.512 -0.729,-6.48 0,0.02 -0.022,-0.134 -0.022,-0.134 z"
         id="path6351"
         inkscape:connector-curvature="0" />
      <path
         style="fill:#ffffff;fill-opacity:1"
         d="m 13.658,11.435 c 0,0 -3.068,4.782 2.402,10.08 -4.719,-4.783 -2.66,-9.307 -2.402,-9.694 0.343,-0.493 0,-0.386 0,-0.386 z"
         id="path6353"
         inkscape:connector-curvature="0" />
      <path
         style="fill:#ffffff;fill-opacity:1"
         d="m 6.726,25.65 c 0,0 -4.996,2.93 8.262,2.233 C 8.4,27.771 6.446,26.851 6.726,25.65 Z"
         id="path6355"
         inkscape:connector-curvature="0" />
    </g>
  </g>
</svg>
